<?xml version="1.0" encoding="UTF-8" standalone="no"?>
<!-- Created with Inkscape (http://www.inkscape.org/) -->

<svg
   width="145.32512mm"
   height="95.244202mm"
   viewBox="0 0 145.32512 95.244202"
   version="1.1"
   id="svg1"
   xmlns:xlink="http://www.w3.org/1999/xlink"
   xmlns="http://www.w3.org/2000/svg"
   xmlns:svg="http://www.w3.org/2000/svg">
  <defs
     id="defs1">
    <linearGradient
       id="linearGradient1">
      <stop
         style="stop-color:#000000;stop-opacity:1;"
         offset="0"
         id="stop1" />
      <stop
         style="stop-color:#803d06;stop-opacity:1;"
         offset="1"
         id="stop2" />
    </linearGradient>
    <linearGradient
       xlink:href="#linearGradient1"
       id="linearGradient2"
       x1="112.21791"
       y1="199.97658"
       x2="104.69658"
       y2="99.650505"
       gradientUnits="userSpaceOnUse" />
  </defs>
  <g
     id="layer1"
     transform="translate(-37.270951,-103.82802)">
    <path
       style="fill:url(#linearGradient2);stroke-width:0.264583"
       d="m 73.450634,130.97831 c 29.340486,-24.48392 42.973986,-35.153999 61.853556,-20.43864 18.87957,14.71534 10.00875,-0.0763 23.63028,0.94912 13.62154,1.02542 12.2637,11.77587 5.81619,17.92502 -4.69324,4.47606 -19.71832,-0.58598 -14.9826,3.7741 4.73571,4.36008 27.66997,1.22214 28.74983,7.3821 1.07986,6.15996 15.57799,29.07656 -17.55928,37.86625 -33.13727,8.78969 -39.81405,-24.46907 -41.50258,-18.22323 -1.68852,6.24584 -1.09545,33.18546 -21.269265,37.74656 -20.173815,4.56109 -34.673614,-5.40353 -34.503127,-20.70856 0.17049,-15.30503 -5.190657,-10.2422 -16.738232,-8.85461 -11.547575,1.3876 -13.264908,-15.11261 -2.394617,-20.72786 10.87029,-5.61526 14.835479,-7.05522 11.77162,-13.87446 -3.063862,-6.81924 4.468235,-17.03964 12.783346,-14.84795 8.31511,2.19167 4.344879,12.03216 4.344879,12.03216 z"
       id="path1" />
  </g>
</svg>
