<?xml version="1.0" encoding="UTF-8" standalone="no"?>
<!-- Created with Inkscape (http://www.inkscape.org/) -->

<svg
   width="210mm"
   height="297mm"
   viewBox="0 0 210 297"
   version="1.1"
   id="svg1"
   inkscape:version="1.3.2 (091e20ef0f, 2023-11-25, custom)"
   sodipodi:docname="icon.svg"
   inkscape:export-filename="icon.png"
   inkscape:export-xdpi="96"
   inkscape:export-ydpi="96"
   xmlns:inkscape="http://www.inkscape.org/namespaces/inkscape"
   xmlns:sodipodi="http://sodipodi.sourceforge.net/DTD/sodipodi-0.dtd"
   xmlns="http://www.w3.org/2000/svg"
   xmlns:svg="http://www.w3.org/2000/svg">
  <sodipodi:namedview
     id="namedview1"
     pagecolor="#505050"
     bordercolor="#eeeeee"
     borderopacity="1"
     inkscape:showpageshadow="0"
     inkscape:pageopacity="0"
     inkscape:pagecheckerboard="0"
     inkscape:deskcolor="#505050"
     inkscape:document-units="mm"
     inkscape:zoom="0.44988075"
     inkscape:cx="251.17767"
     inkscape:cy="263.40313"
     inkscape:window-width="1366"
     inkscape:window-height="709"
     inkscape:window-x="0"
     inkscape:window-y="27"
     inkscape:window-maximized="1"
     inkscape:current-layer="layer1" />
  <defs
     id="defs1" />
  <g
     inkscape:label="Capa 1"
     inkscape:groupmode="layer"
     id="layer1">
    <path
       style="fill:#931313;fill-opacity:1;stroke:#530404;stroke-width:1.76365;stroke-linecap:round;stroke-linejoin:round;stroke-dasharray:none;stroke-opacity:1"
       d="M 70.218984,42.232628 C 49.609663,42.482021 46.488,59.760638 46.184773,68.11397 c -0.351347,9.679036 1.814417,21.719815 8.568761,30.186272 8.29545,10.398198 24.640639,13.483548 36.152898,13.286968 11.184798,-0.19096 26.516358,0.23928 37.373008,-12.494308 7.11758,-8.348077 8.1446,-23.116223 7.96239,-33.96053 -0.12228,-7.277141 -3.93988,-22.704039 -20.16939,-22.673341 -17.286982,0.03269 -18.634303,2.750389 -22.695534,4.451371 -5.344901,-1.930503 -6.391274,-4.880666 -23.157922,-4.677774 z"
       id="path12"
       sodipodi:nodetypes="ssssssscs" />
    <path
       style="fill:#ca7070;fill-opacity:1;stroke:none;stroke-width:1.79832;stroke-linecap:round;stroke-linejoin:round;stroke-dasharray:none;stroke-opacity:1"
       d="m 98.146579,50.521173 c 0,0 12.654531,-4.709157 19.176391,-3.443399 6.23433,1.20996 13.66543,4.724617 13.48406,15.594908 -0.18136,10.870292 -3.60343,19.177344 -3.60343,19.177344 0,0 0.6996,-20.118133 -5.03087,-25.932353 -5.03157,-5.105091 -11.65382,-7.945486 -24.026151,-5.3965 z"
       id="path13"
       sodipodi:nodetypes="csscsc" />
    <path
       style="fill:#395821;fill-opacity:1;stroke:#082f02;stroke-width:1.05791;stroke-linecap:round;stroke-linejoin:round;stroke-dasharray:none;stroke-opacity:1"
       d="m 95.390014,42.789132 c 0,0 -2.691573,-5.666818 -12.682123,-6.010841 C 72.61038,36.430584 59.373625,32.69682 59.373625,32.69682 c 0,0 3.095478,6.116943 6.468431,6.90574 13.027943,3.046708 17.761044,3.953058 17.761044,3.953058 0,0 -4.615331,-2.178709 -16.468148,-0.428215 -11.852814,1.750496 -17.246372,5.746195 -17.246372,5.746195 0,0 15.344641,4.056522 21.053993,2.75754 8.207906,-1.86745 17.976163,-3.730655 17.976163,-3.730655 0,0 -1.184783,4.776153 -1.318004,11.405672 -0.08886,4.42175 6.279845,12.493273 6.279845,12.493273 0,0 4.152465,-7.553051 5.483915,-11.619268 1.331448,-4.066217 0.33002,-11.419362 0.33002,-11.419362 0,0 10.842338,-0.574057 17.323338,-1.788771 6.09038,-1.1415 17.52335,-9.908959 17.52335,-9.908959 0,0 -9.66188,3.240872 -17.31147,3.758363 -7.46216,0.504811 -19.068858,2.681247 -19.068858,2.681247 0,0 -0.772503,-5.680293 2.125488,-9.562503 2.89799,-3.882208 8.03638,-7.694206 8.03638,-7.694206 l -2.5147,-2.172347 c 0,0 -7.534798,5.324883 -8.585651,7.77403 -1.050859,2.449148 -1.832375,10.94148 -1.832375,10.94148 z"
       id="path14"
       sodipodi:nodetypes="cscscscscsczcscscsccsc" />
  </g>
  <g
     inkscape:groupmode="layer"
     id="layer2"
     inkscape:label="Capa 2"
     transform="matrix(0.70832792,0,0,0.70260662,26.321119,12.298188)">
    <path
       style="fill:none;fill-opacity:1;stroke:#530404;stroke-width:1;stroke-linecap:round;stroke-linejoin:round;stroke-dasharray:none;stroke-opacity:1"
       d="m 28.637116,93.28818 c 0,0 28.972637,9.97067 63.562234,10.76803 34.5896,0.79735 62.15706,-10.351634 62.15706,-10.351634"
       id="path15" />
    <path
       style="fill:#530404;fill-opacity:1;stroke:#530404;stroke-width:1;stroke-linecap:round;stroke-linejoin:round;stroke-dasharray:none;stroke-opacity:1"
       d="m 97.392222,101.57015 2.232548,-5.40002 -4.859223,0.102825 z"
       id="path16" />
  </g>
</svg>
